<?xml version="1.0" encoding="iso-8859-1"?>
<!-- Uploaded to: SVG Repo, www.svgrepo.com, Generator: SVG Repo Mixer Tools -->
<svg version="1.1" id="Layer_1" xmlns="http://www.w3.org/2000/svg" xmlns:xlink="http://www.w3.org/1999/xlink" 
	 viewBox="0 0 511.999 511.999" xml:space="preserve">
<rect x="18.131" style="fill:#FC583D;" width="298.97" height="412.29"/>
<g>
	<path style="fill:#A53425;" d="M167.61,104.278c-56.169,0-101.867,45.698-101.867,101.867s45.698,101.867,101.867,101.867
		s101.867-45.698,101.867-101.867S223.779,104.278,167.61,104.278z M250.899,197.103h-17.642
		c-1.213-21.75-6.785-42.111-16.033-58.42C235.642,152.264,248.32,173.189,250.899,197.103z M158.569,123.951v73.152h-38.485
		C122.412,161.022,138.451,131.015,158.569,123.951z M158.569,215.186v73.153c-20.118-7.064-36.156-37.071-38.485-73.153H158.569z
		 M176.652,288.339v-73.153h38.485C212.808,251.268,196.77,281.274,176.652,288.339z M176.652,197.103v-73.152
		c20.118,7.064,36.156,37.071,38.485,73.152H176.652z M117.997,138.682c-9.249,16.308-14.822,36.67-16.034,58.42H84.322
		C86.9,173.189,99.579,152.264,117.997,138.682z M84.322,215.186h17.642c1.213,21.75,6.785,42.111,16.033,58.42
		C99.579,260.026,86.9,239.1,84.322,215.186z M217.224,273.606c9.249-16.308,14.822-36.67,16.033-58.42h17.642
		C248.32,239.1,235.642,260.026,217.224,273.606z"/>
	<rect x="114.561" y="56.057" style="fill:#A53425;" width="106.086" height="18.083"/>
</g>
<rect x="217.031" y="323.081" style="fill:#E6E6E6;" width="276.837" height="188.918"/>
<circle style="fill:#FFFFFF;" cx="297.801" cy="396.618" r="37.371"/>
<path style="fill:#FFCA6C;" d="M335.178,471.361c0-20.64-16.731-37.371-37.371-37.371c-20.64,0-37.371,16.731-37.371,37.371H335.178
	z"/>
<g>
	<rect x="373.761" y="359.849" style="fill:#808080;" width="88.003" height="18.083"/>
	<rect x="421.982" y="394.002" style="fill:#808080;" width="39.782" height="18.083"/>
	<rect x="373.761" y="394.002" style="fill:#808080;" width="30.138" height="18.083"/>
	<rect x="444.887" y="462.319" style="fill:#808080;" width="16.877" height="18.083"/>
	<rect x="373.761" y="462.319" style="fill:#808080;" width="53.043" height="18.083"/>
	<rect x="373.761" y="428.167" style="fill:#808080;" width="88.003" height="18.083"/>
</g>
</svg>