<?xml version="1.0" encoding="UTF-8" standalone="no"?>
<!-- Created with Inkscape (http://www.inkscape.org/) -->

<svg
   width="210mm"
   height="263mm"
   viewBox="0 0 210 263"
   version="1.1"
   id="svg5"
   inkscape:version="1.1.2 (b8e25be833, 2022-02-05)"
   sodipodi:docname="logo.svg"
   xmlns:inkscape="http://www.inkscape.org/namespaces/inkscape"
   xmlns:sodipodi="http://sodipodi.sourceforge.net/DTD/sodipodi-0.dtd"
   xmlns:xlink="http://www.w3.org/1999/xlink"
   xmlns="http://www.w3.org/2000/svg"
   xmlns:svg="http://www.w3.org/2000/svg">
  <sodipodi:namedview
     id="namedview7"
     pagecolor="#ffffff"
     bordercolor="#666666"
     borderopacity="1.0"
     inkscape:pageshadow="2"
     inkscape:pageopacity="0.0"
     inkscape:pagecheckerboard="0"
     inkscape:document-units="mm"
     showgrid="false"
     inkscape:zoom="0.70710678"
     inkscape:cx="364.8671"
     inkscape:cy="316.07673"
     inkscape:window-width="1920"
     inkscape:window-height="1924"
     inkscape:window-x="1752"
     inkscape:window-y="61"
     inkscape:window-maximized="0"
     inkscape:current-layer="layer1" />
  <defs
     id="defs2">
    <inkscape:path-effect
       effect="bspline"
       id="path-effect111089"
       is_visible="true"
       lpeversion="1"
       weight="33.333333"
       steps="2"
       helper_size="0"
       apply_no_weight="true"
       apply_with_weight="true"
       only_selected="false" />
    <inkscape:path-effect
       effect="bspline"
       id="path-effect110843"
       is_visible="true"
       lpeversion="1"
       weight="33.333333"
       steps="2"
       helper_size="0"
       apply_no_weight="true"
       apply_with_weight="true"
       only_selected="false" />
    <inkscape:path-effect
       effect="bspline"
       id="path-effect110839"
       is_visible="true"
       lpeversion="1"
       weight="33.333333"
       steps="2"
       helper_size="0"
       apply_no_weight="true"
       apply_with_weight="true"
       only_selected="false" />
    <inkscape:path-effect
       effect="bspline"
       id="path-effect110835"
       is_visible="true"
       lpeversion="1"
       weight="33.333333"
       steps="2"
       helper_size="0"
       apply_no_weight="true"
       apply_with_weight="true"
       only_selected="false" />
    <inkscape:path-effect
       effect="bspline"
       id="path-effect110831"
       is_visible="true"
       lpeversion="1"
       weight="33.333333"
       steps="2"
       helper_size="0"
       apply_no_weight="true"
       apply_with_weight="true"
       only_selected="false" />
    <inkscape:path-effect
       effect="bspline"
       id="path-effect110827"
       is_visible="true"
       lpeversion="1"
       weight="33.333333"
       steps="2"
       helper_size="0"
       apply_no_weight="true"
       apply_with_weight="true"
       only_selected="false" />
    <inkscape:path-effect
       effect="bspline"
       id="path-effect110823"
       is_visible="true"
       lpeversion="1"
       weight="33.333333"
       steps="2"
       helper_size="0"
       apply_no_weight="true"
       apply_with_weight="true"
       only_selected="false" />
    <inkscape:path-effect
       effect="bspline"
       id="path-effect110819"
       is_visible="true"
       lpeversion="1"
       weight="33.333333"
       steps="2"
       helper_size="0"
       apply_no_weight="true"
       apply_with_weight="true"
       only_selected="false" />
    <inkscape:path-effect
       effect="bspline"
       id="path-effect110815"
       is_visible="true"
       lpeversion="1"
       weight="33.333333"
       steps="2"
       helper_size="0"
       apply_no_weight="true"
       apply_with_weight="true"
       only_selected="false" />
    <inkscape:path-effect
       effect="bspline"
       id="path-effect110811"
       is_visible="true"
       lpeversion="1"
       weight="33.333333"
       steps="2"
       helper_size="0"
       apply_no_weight="true"
       apply_with_weight="true"
       only_selected="false" />
    <inkscape:path-effect
       effect="bspline"
       id="path-effect110807"
       is_visible="true"
       lpeversion="1"
       weight="33.333333"
       steps="2"
       helper_size="0"
       apply_no_weight="true"
       apply_with_weight="true"
       only_selected="false" />
    <inkscape:path-effect
       effect="bspline"
       id="path-effect110803"
       is_visible="true"
       lpeversion="1"
       weight="33.333333"
       steps="2"
       helper_size="0"
       apply_no_weight="true"
       apply_with_weight="true"
       only_selected="false" />
    <inkscape:path-effect
       effect="bspline"
       id="path-effect110799"
       is_visible="true"
       lpeversion="1"
       weight="33.333333"
       steps="2"
       helper_size="0"
       apply_no_weight="true"
       apply_with_weight="true"
       only_selected="false" />
    <inkscape:path-effect
       effect="bspline"
       id="path-effect110795"
       is_visible="true"
       lpeversion="1"
       weight="33.333333"
       steps="2"
       helper_size="0"
       apply_no_weight="true"
       apply_with_weight="true"
       only_selected="false" />
    <inkscape:path-effect
       effect="bspline"
       id="path-effect110791"
       is_visible="true"
       lpeversion="1"
       weight="33.333333"
       steps="2"
       helper_size="0"
       apply_no_weight="true"
       apply_with_weight="true"
       only_selected="false" />
    <inkscape:path-effect
       effect="bspline"
       id="path-effect110787"
       is_visible="true"
       lpeversion="1"
       weight="33.333333"
       steps="2"
       helper_size="0"
       apply_no_weight="true"
       apply_with_weight="true"
       only_selected="false" />
    <linearGradient
       inkscape:collect="always"
       id="linearGradient63843">
      <stop
         style="stop-color:#fe8d1c;stop-opacity:1"
         offset="0"
         id="stop63839" />
      <stop
         style="stop-color:#dc6114;stop-opacity:1"
         offset="1"
         id="stop63841" />
    </linearGradient>
    <linearGradient
       inkscape:collect="always"
       id="linearGradient37174">
      <stop
         style="stop-color:#f77821;stop-opacity:1"
         offset="0"
         id="stop37170" />
      <stop
         style="stop-color:#ffb62e;stop-opacity:1"
         offset="1"
         id="stop37172" />
    </linearGradient>
    <inkscape:path-effect
       effect="bspline"
       id="path-effect6066"
       is_visible="true"
       lpeversion="1"
       weight="33.333333"
       steps="2"
       helper_size="0"
       apply_no_weight="true"
       apply_with_weight="true"
       only_selected="false" />
    <inkscape:path-effect
       effect="bspline"
       id="path-effect6062"
       is_visible="true"
       lpeversion="1"
       weight="33.333333"
       steps="2"
       helper_size="0"
       apply_no_weight="true"
       apply_with_weight="true"
       only_selected="false" />
    <inkscape:path-effect
       effect="bspline"
       id="path-effect6058"
       is_visible="true"
       lpeversion="1"
       weight="33.333333"
       steps="2"
       helper_size="0"
       apply_no_weight="true"
       apply_with_weight="true"
       only_selected="false" />
    <inkscape:path-effect
       effect="bspline"
       id="path-effect6046"
       is_visible="true"
       lpeversion="1"
       weight="33.333333"
       steps="2"
       helper_size="0"
       apply_no_weight="true"
       apply_with_weight="true"
       only_selected="false" />
    <inkscape:path-effect
       effect="bspline"
       id="path-effect6042"
       is_visible="true"
       lpeversion="1"
       weight="33.333333"
       steps="2"
       helper_size="0"
       apply_no_weight="true"
       apply_with_weight="true"
       only_selected="false" />
    <inkscape:path-effect
       effect="bspline"
       id="path-effect6038"
       is_visible="true"
       lpeversion="1"
       weight="33.333333"
       steps="2"
       helper_size="0"
       apply_no_weight="true"
       apply_with_weight="true"
       only_selected="false" />
    <inkscape:path-effect
       effect="bspline"
       id="path-effect6034"
       is_visible="true"
       lpeversion="1"
       weight="33.333333"
       steps="2"
       helper_size="0"
       apply_no_weight="true"
       apply_with_weight="true"
       only_selected="false" />
    <inkscape:path-effect
       effect="bspline"
       id="path-effect6030"
       is_visible="true"
       lpeversion="1"
       weight="33.333333"
       steps="2"
       helper_size="0"
       apply_no_weight="true"
       apply_with_weight="true"
       only_selected="false" />
    <inkscape:path-effect
       effect="bspline"
       id="path-effect6026"
       is_visible="true"
       lpeversion="1"
       weight="33.333333"
       steps="2"
       helper_size="0"
       apply_no_weight="true"
       apply_with_weight="true"
       only_selected="false" />
    <inkscape:path-effect
       effect="bspline"
       id="path-effect6018"
       is_visible="true"
       lpeversion="1"
       weight="33.333333"
       steps="2"
       helper_size="0"
       apply_no_weight="true"
       apply_with_weight="true"
       only_selected="false" />
    <inkscape:path-effect
       effect="bspline"
       id="path-effect6014"
       is_visible="true"
       lpeversion="1"
       weight="33.333333"
       steps="2"
       helper_size="0"
       apply_no_weight="true"
       apply_with_weight="true"
       only_selected="false" />
    <inkscape:path-effect
       effect="bspline"
       id="path-effect6010"
       is_visible="true"
       lpeversion="1"
       weight="33.333333"
       steps="2"
       helper_size="0"
       apply_no_weight="true"
       apply_with_weight="true"
       only_selected="false" />
    <inkscape:path-effect
       effect="bspline"
       id="path-effect6006"
       is_visible="true"
       lpeversion="1"
       weight="33.333333"
       steps="2"
       helper_size="0"
       apply_no_weight="true"
       apply_with_weight="true"
       only_selected="false" />
    <inkscape:path-effect
       effect="bspline"
       id="path-effect6002"
       is_visible="true"
       lpeversion="1"
       weight="33.333333"
       steps="2"
       helper_size="0"
       apply_no_weight="true"
       apply_with_weight="true"
       only_selected="false" />
    <inkscape:path-effect
       effect="bspline"
       id="path-effect5998"
       is_visible="true"
       lpeversion="1"
       weight="33.333333"
       steps="2"
       helper_size="0"
       apply_no_weight="true"
       apply_with_weight="true"
       only_selected="false" />
    <inkscape:path-effect
       effect="bspline"
       id="path-effect5994"
       is_visible="true"
       lpeversion="1"
       weight="33.333333"
       steps="2"
       helper_size="0"
       apply_no_weight="true"
       apply_with_weight="true"
       only_selected="false" />
    <inkscape:path-effect
       effect="bspline"
       id="path-effect5990"
       is_visible="true"
       lpeversion="1"
       weight="33.333333"
       steps="2"
       helper_size="0"
       apply_no_weight="true"
       apply_with_weight="true"
       only_selected="false" />
    <inkscape:path-effect
       effect="bspline"
       id="path-effect5550"
       is_visible="true"
       lpeversion="1"
       weight="33.333333"
       steps="2"
       helper_size="0"
       apply_no_weight="true"
       apply_with_weight="true"
       only_selected="false" />
    <inkscape:path-effect
       effect="bspline"
       id="path-effect5546"
       is_visible="true"
       lpeversion="1"
       weight="33.333333"
       steps="2"
       helper_size="0"
       apply_no_weight="true"
       apply_with_weight="true"
       only_selected="false" />
    <inkscape:path-effect
       effect="bspline"
       id="path-effect5542"
       is_visible="true"
       lpeversion="1"
       weight="33.333333"
       steps="2"
       helper_size="0"
       apply_no_weight="true"
       apply_with_weight="true"
       only_selected="false" />
    <inkscape:path-effect
       effect="bspline"
       id="path-effect5538"
       is_visible="true"
       lpeversion="1"
       weight="33.333333"
       steps="2"
       helper_size="0"
       apply_no_weight="true"
       apply_with_weight="true"
       only_selected="false" />
    <inkscape:path-effect
       effect="bspline"
       id="path-effect5534"
       is_visible="true"
       lpeversion="1"
       weight="33.333333"
       steps="2"
       helper_size="0"
       apply_no_weight="true"
       apply_with_weight="true"
       only_selected="false" />
    <inkscape:path-effect
       effect="bspline"
       id="path-effect5522"
       is_visible="true"
       lpeversion="1"
       weight="33.333333"
       steps="2"
       helper_size="0"
       apply_no_weight="true"
       apply_with_weight="true"
       only_selected="false" />
    <inkscape:path-effect
       effect="bspline"
       id="path-effect5518"
       is_visible="true"
       lpeversion="1"
       weight="33.333333"
       steps="2"
       helper_size="0"
       apply_no_weight="true"
       apply_with_weight="true"
       only_selected="false" />
    <inkscape:path-effect
       effect="bspline"
       id="path-effect4543"
       is_visible="true"
       lpeversion="1"
       weight="33.333333"
       steps="2"
       helper_size="0"
       apply_no_weight="true"
       apply_with_weight="true"
       only_selected="false" />
    <inkscape:path-effect
       effect="bspline"
       id="path-effect4539"
       is_visible="true"
       lpeversion="1"
       weight="33.333333"
       steps="2"
       helper_size="0"
       apply_no_weight="true"
       apply_with_weight="true"
       only_selected="false" />
    <inkscape:path-effect
       effect="bspline"
       id="path-effect4535"
       is_visible="true"
       lpeversion="1"
       weight="33.333333"
       steps="2"
       helper_size="0"
       apply_no_weight="true"
       apply_with_weight="true"
       only_selected="false" />
    <inkscape:path-effect
       effect="bspline"
       id="path-effect4531"
       is_visible="true"
       lpeversion="1"
       weight="33.333333"
       steps="2"
       helper_size="0"
       apply_no_weight="true"
       apply_with_weight="true"
       only_selected="false" />
    <inkscape:path-effect
       effect="bspline"
       id="path-effect4527"
       is_visible="true"
       lpeversion="1"
       weight="33.333333"
       steps="2"
       helper_size="0"
       apply_no_weight="true"
       apply_with_weight="true"
       only_selected="false" />
    <inkscape:path-effect
       effect="bspline"
       id="path-effect4347"
       is_visible="true"
       lpeversion="1"
       weight="33.333333"
       steps="2"
       helper_size="0"
       apply_no_weight="true"
       apply_with_weight="true"
       only_selected="false" />
    <inkscape:path-effect
       effect="bspline"
       id="path-effect4343"
       is_visible="true"
       lpeversion="1"
       weight="33.333333"
       steps="2"
       helper_size="0"
       apply_no_weight="true"
       apply_with_weight="true"
       only_selected="false" />
    <inkscape:path-effect
       effect="bspline"
       id="path-effect4339"
       is_visible="true"
       lpeversion="1"
       weight="33.333333"
       steps="2"
       helper_size="0"
       apply_no_weight="true"
       apply_with_weight="true"
       only_selected="false" />
    <inkscape:path-effect
       effect="bspline"
       id="path-effect3937"
       is_visible="true"
       lpeversion="1"
       weight="33.333333"
       steps="2"
       helper_size="0"
       apply_no_weight="true"
       apply_with_weight="true"
       only_selected="false" />
    <inkscape:path-effect
       effect="bspline"
       id="path-effect3768"
       is_visible="true"
       lpeversion="1"
       weight="33.333333"
       steps="2"
       helper_size="0"
       apply_no_weight="true"
       apply_with_weight="true"
       only_selected="false" />
    <inkscape:path-effect
       effect="bspline"
       id="path-effect3596"
       is_visible="true"
       lpeversion="1"
       weight="33.333333"
       steps="2"
       helper_size="0"
       apply_no_weight="true"
       apply_with_weight="true"
       only_selected="false" />
    <inkscape:path-effect
       effect="bspline"
       id="path-effect2955"
       is_visible="true"
       lpeversion="1"
       weight="33.333333"
       steps="2"
       helper_size="0"
       apply_no_weight="true"
       apply_with_weight="true"
       only_selected="false" />
    <inkscape:path-effect
       effect="bspline"
       id="path-effect2951"
       is_visible="true"
       lpeversion="1"
       weight="33.333333"
       steps="2"
       helper_size="0"
       apply_no_weight="true"
       apply_with_weight="true"
       only_selected="false" />
    <inkscape:path-effect
       effect="bspline"
       id="path-effect2367"
       is_visible="true"
       lpeversion="1"
       weight="33.333333"
       steps="2"
       helper_size="0"
       apply_no_weight="true"
       apply_with_weight="true"
       only_selected="false" />
    <inkscape:path-effect
       effect="bspline"
       id="path-effect2166"
       is_visible="true"
       lpeversion="1"
       weight="33.333333"
       steps="2"
       helper_size="0"
       apply_no_weight="true"
       apply_with_weight="true"
       only_selected="false" />
    <inkscape:path-effect
       effect="bspline"
       id="path-effect1966"
       is_visible="true"
       lpeversion="1"
       weight="33.333333"
       steps="2"
       helper_size="0"
       apply_no_weight="true"
       apply_with_weight="true"
       only_selected="false" />
    <inkscape:path-effect
       effect="bspline"
       id="path-effect1829"
       is_visible="true"
       lpeversion="1"
       weight="33.333333"
       steps="2"
       helper_size="0"
       apply_no_weight="true"
       apply_with_weight="true"
       only_selected="false" />
    <inkscape:path-effect
       effect="bspline"
       id="path-effect1711"
       is_visible="true"
       lpeversion="1"
       weight="33.333333"
       steps="2"
       helper_size="0"
       apply_no_weight="true"
       apply_with_weight="true"
       only_selected="false" />
    <inkscape:path-effect
       effect="bspline"
       id="path-effect1593"
       is_visible="true"
       lpeversion="1"
       weight="33.333333"
       steps="2"
       helper_size="0"
       apply_no_weight="true"
       apply_with_weight="true"
       only_selected="false" />
    <inkscape:path-effect
       effect="bspline"
       id="path-effect1475"
       is_visible="true"
       lpeversion="1"
       weight="33.333333"
       steps="2"
       helper_size="0"
       apply_no_weight="true"
       apply_with_weight="true"
       only_selected="false" />
    <inkscape:path-effect
       effect="bspline"
       id="path-effect1344"
       is_visible="true"
       lpeversion="1"
       weight="33.333333"
       steps="2"
       helper_size="0"
       apply_no_weight="true"
       apply_with_weight="true"
       only_selected="false" />
    <inkscape:path-effect
       effect="bspline"
       id="path-effect1340"
       is_visible="true"
       lpeversion="1"
       weight="33.333333"
       steps="2"
       helper_size="0"
       apply_no_weight="true"
       apply_with_weight="true"
       only_selected="false" />
    <inkscape:path-effect
       effect="bspline"
       id="path-effect1336"
       is_visible="true"
       lpeversion="1"
       weight="33.333333"
       steps="2"
       helper_size="0"
       apply_no_weight="true"
       apply_with_weight="true"
       only_selected="false" />
    <inkscape:path-effect
       effect="bspline"
       id="path-effect1332"
       is_visible="true"
       lpeversion="1"
       weight="33.333333"
       steps="2"
       helper_size="0"
       apply_no_weight="true"
       apply_with_weight="true"
       only_selected="false" />
    <inkscape:path-effect
       effect="bspline"
       id="path-effect1328"
       is_visible="true"
       lpeversion="1"
       weight="33.333333"
       steps="2"
       helper_size="0"
       apply_no_weight="true"
       apply_with_weight="true"
       only_selected="false" />
    <linearGradient
       inkscape:collect="always"
       xlink:href="#linearGradient37174"
       id="linearGradient37176"
       x1="188.86914"
       y1="240.53107"
       x2="693.2951"
       y2="240.53107"
       gradientUnits="userSpaceOnUse"
       gradientTransform="scale(0.26458333)" />
    <linearGradient
       inkscape:collect="always"
       xlink:href="#linearGradient63843"
       id="linearGradient63845"
       x1="149.34052"
       y1="234.50162"
       x2="58.472687"
       y2="70.14003"
       gradientUnits="userSpaceOnUse"
       gradientTransform="scale(3.7795276)" />
  </defs>
  <g
     inkscape:label="Layer 1"
     inkscape:groupmode="layer"
     id="layer1">
    <g
       id="g125835"
       transform="translate(0,-14.509314)">
      <path
         id="path891"
         style="fill:url(#linearGradient63845);fill-opacity:1;stroke:none;stroke-width:1.54965;stroke-linecap:round;stroke-linejoin:round;paint-order:stroke fill markers"
         d="M 396.84961,209.33008 A 347.09741,361.92904 0 0 0 49.753906,571.25977 347.09741,361.92904 0 0 0 375.02734,932.33594 c 3.41453,-7.333 7.73376,-14.93039 13.31446,-22.44727 19.04825,-25.65691 52.4794,-50.27682 93.68554,-69.97265 41.20615,-19.69588 90.18506,-34.46685 122.90821,-41.43164 32.72315,-6.96484 49.18875,-6.12307 62.14648,-5.73438 0.0753,0.002 0.14379,0.006 0.21875,0.008 l 3.28711,0.44531 0.48633,-0.3164 A 347.09741,361.92904 0 0 0 743.94727,571.25977 347.09741,361.92904 0 0 0 396.84961,209.33008 Z"
         transform="scale(0.26458333)" />
      <g
         id="g53104"
         style="fill:#ffa537;fill-opacity:1">
        <path
           id="path5516"
           style="fill:#ffa537;fill-opacity:1;stroke:none;stroke-width:0.999999px;stroke-linecap:butt;stroke-linejoin:miter;stroke-opacity:1"
           d="m 78.492188,691.0918 c -1.472622,0.0228 -2.982229,0.58803 -4.308594,1.61914 -1.143583,0.88901 -2.149847,2.12582 -2.910156,3.40429 a 347.09741,361.92904 0 0 0 3.332031,9.42383 c 1.661155,0.69242 3.561617,1.03257 5.236328,0.36719 2.637325,-1.04784 4.715807,-4.58669 4.898437,-7.62695 0.182631,-3.04027 -1.531336,-5.58198 -3.685546,-6.62696 -0.807829,-0.39186 -1.678928,-0.57421 -2.5625,-0.56054 z"
           transform="scale(0.26458333)" />
        <path
           style="fill:#ffa537;fill-opacity:1;stroke:none;stroke-width:0.264583px;stroke-linecap:butt;stroke-linejoin:miter;stroke-opacity:1"
           d="m 35.275346,186.10716 c -0.05183,0.40659 0.05534,0.68572 0.440478,0.95012 0.385135,0.26439 1.048004,0.51423 1.477068,0.26108 0.429064,-0.25315 0.624667,-1.00932 0.558629,-1.57475 -0.06604,-0.56542 -0.393997,-0.94016 -0.771339,-1.09364 -0.377342,-0.15348 -0.804002,-0.0854 -1.12299,0.21569 -0.318987,0.30107 -0.530011,0.83491 -0.581846,1.2415 z"
           id="path5520" />
        <path
           style="fill:#ffa537;fill-opacity:1;stroke:none;stroke-width:0.264583px;stroke-linecap:butt;stroke-linejoin:miter;stroke-opacity:1"
           d="m 40.058032,176.44023 c 0.08837,-0.069 0.265084,-0.20698 0.483541,-0.23224 0.218457,-0.0252 0.478364,0.0621 0.589015,0.2036 0.110651,0.14153 0.0724,0.33716 -0.03468,0.58027 -0.107075,0.24311 -0.282956,0.53382 -0.440647,0.75984 -0.15769,0.22601 -0.29721,0.38737 -0.452438,0.41861 -0.155229,0.0312 -0.326465,-0.0678 -0.420702,-0.22897 -0.09424,-0.16117 -0.111166,-0.38458 -0.103281,-0.58289 0.0079,-0.19832 0.04065,-0.37146 0.09325,-0.50884 0.05261,-0.13738 0.125064,-0.23886 0.161311,-0.28962 0.03625,-0.0508 0.03625,-0.0508 0.124625,-0.11976 z"
           id="path5532" />
        <path
           style="fill:#ffa537;fill-opacity:1;stroke:none;stroke-width:0.264583px;stroke-linecap:butt;stroke-linejoin:miter;stroke-opacity:1"
           d="m 43.351652,183.7398 c -0.01172,0.2237 -0.03514,0.67084 0.02401,0.99513 0.05914,0.32429 0.200618,0.52569 0.414521,0.61591 0.213903,0.0902 0.500183,0.0696 0.70923,-0.0842 0.209047,-0.15381 0.341148,-0.44091 0.372592,-0.76445 0.03144,-0.32354 -0.03789,-0.68369 -0.138419,-0.91567 -0.100533,-0.23198 -0.232498,-0.33572 -0.431553,-0.3797 -0.199056,-0.044 -0.465142,-0.0279 -0.632866,0.0337 -0.167725,0.0616 -0.236782,0.16866 -0.271288,0.22216 -0.03451,0.0535 -0.03451,0.0535 -0.04622,0.27717 z"
           id="path5536" />
        <path
           style="fill:#ffa537;fill-opacity:1;stroke:none;stroke-width:0.264583px;stroke-linecap:butt;stroke-linejoin:miter;stroke-opacity:1"
           d="m 48.018466,192.93091 c -0.09567,0.06 -0.287075,0.1801 -0.383582,0.40934 -0.09651,0.22923 -0.09804,0.5673 -0.09262,0.94521 0.0054,0.37792 0.01778,0.79565 0.105788,1.05064 0.08801,0.25499 0.251358,0.34733 0.464395,0.30395 0.213037,-0.0434 0.476007,-0.22225 0.647997,-0.49711 0.171989,-0.27486 0.253097,-0.64592 0.261499,-0.97274 0.0084,-0.32683 -0.05602,-0.6095 -0.151913,-0.81173 -0.0959,-0.20224 -0.223465,-0.32397 -0.354668,-0.39188 -0.131203,-0.0679 -0.266056,-0.0818 -0.333624,-0.0887 -0.06757,-0.007 -0.0676,-0.007 -0.16327,0.0531 z"
           id="path5540" />
        <path
           style="fill:#ffa537;fill-opacity:1;stroke:none;stroke-width:0.264583px;stroke-linecap:butt;stroke-linejoin:miter;stroke-opacity:1"
           d="m 56.931277,199.81767 c -0.135248,0.0984 -0.405796,0.29522 -0.554483,0.43456 -0.148688,0.13934 -0.175085,0.21999 -0.179813,0.5155 -0.0047,0.29552 0.01232,0.80528 0.118126,1.10405 0.105812,0.29877 0.30005,0.38667 0.636981,0.42846 0.336932,0.0418 0.81658,0.0376 1.159208,-0.1651 0.342628,-0.20272 0.548533,-0.60409 0.638704,-0.97299 0.09017,-0.36889 0.06453,-0.70547 -0.02892,-0.97102 -0.09345,-0.26554 -0.25492,-0.46004 -0.501552,-0.54066 -0.246632,-0.0806 -0.578413,-0.0471 -0.784771,-0.0166 -0.206357,0.0305 -0.287207,0.0579 -0.32772,0.0717 -0.04051,0.0137 -0.04051,0.0137 -0.175763,0.11214 z"
           id="path5544" />
        <path
           style="fill:#ffa537;fill-opacity:1;stroke:none;stroke-width:0.264583px;stroke-linecap:butt;stroke-linejoin:miter;stroke-opacity:1"
           d="m 78.485452,214.03771 c -0.114124,0.2916 -0.197225,0.70985 -0.16065,1.00957 0.03658,0.29972 0.192546,0.48083 0.395724,0.66389 0.203178,0.18307 0.453508,0.36816 0.681937,0.27139 0.228428,-0.0968 0.43528,-0.47524 0.500863,-0.82142 0.06558,-0.34617 -0.01024,-0.66023 -0.202607,-0.94563 -0.19237,-0.2854 -0.501483,-0.54205 -0.728756,-0.5881 -0.227274,-0.0461 -0.372386,0.11869 -0.486511,0.4103 z"
           id="path5548" />
        <path
           style="fill:#ffa537;fill-opacity:1;stroke:none;stroke-width:0.264583px;stroke-linecap:butt;stroke-linejoin:miter;stroke-opacity:1"
           d="m 81.849001,209.11188 c 0.03784,0.16276 0.113454,0.48795 0.254783,0.75839 0.141329,0.27043 0.348179,0.48612 0.58864,0.59865 0.240461,0.11253 0.514496,0.12217 0.693137,-0.0784 0.17864,-0.20061 0.262192,-0.61164 0.191486,-1.00472 -0.07071,-0.39308 -0.29589,-0.7683 -0.58295,-0.99361 -0.287059,-0.22531 -0.636098,-0.30046 -0.843712,-0.18253 -0.207614,0.11793 -0.273441,0.4288 -0.306334,0.58414 -0.03289,0.15534 -0.03289,0.15536 0.005,0.31812 z"
           id="path5988" />
        <path
           style="fill:#ffa537;fill-opacity:1;stroke:none;stroke-width:0.264583px;stroke-linecap:butt;stroke-linejoin:miter;stroke-opacity:1"
           d="m 86.025607,211.3388 c -0.04282,0.2374 -0.128409,0.71198 -0.06311,1.08692 0.0653,0.37494 0.2812,0.65014 0.525202,0.69948 0.244001,0.0494 0.51624,-0.12684 0.608865,-0.40235 0.09262,-0.2755 0.0056,-0.65068 -0.08843,-1.01072 -0.09406,-0.36005 -0.195188,-0.70497 -0.342913,-0.86595 -0.147725,-0.16098 -0.342155,-0.13768 -0.449507,-0.0643 -0.107351,0.0734 -0.127334,0.19657 -0.137309,0.25807 -0.01,0.0615 -0.01,0.0615 -0.05279,0.29885 z"
           id="path5992" />
        <path
           style="fill:#ffa537;fill-opacity:1;stroke:none;stroke-width:0.264583px;stroke-linecap:butt;stroke-linejoin:miter;stroke-opacity:1"
           d="m 80.568465,218.85214 c -0.02981,0.21867 -0.0894,0.65579 0.381836,1.26636 0.471235,0.61057 1.472927,1.39456 2.404589,2.14799 0.931662,0.75342 1.793256,1.47622 2.447894,1.81803 0.654638,0.3418 1.102327,0.30286 1.28808,0.0113 0.185754,-0.29152 0.109755,-0.83591 -0.158171,-1.49124 -0.267926,-0.65533 -0.727909,-1.4216 -1.278274,-2.1628 -0.550364,-0.74119 -1.19114,-1.45724 -1.645038,-1.83453 -0.453899,-0.37729 -0.720948,-0.41555 -1.195256,-0.44715 -0.474309,-0.0316 -1.155831,-0.0565 -1.559792,0.0235 -0.40396,0.08 -0.53003,0.26497 -0.593045,0.35741 -0.06301,0.0924 -0.06301,0.0924 -0.09282,0.31105 z"
           id="path5996" />
        <path
           style="fill:#ffa537;fill-opacity:1;stroke:none;stroke-width:0.264583px;stroke-linecap:butt;stroke-linejoin:miter;stroke-opacity:1"
           d="m 91.518694,213.72375 c -0.325516,0.31148 -0.976558,0.93445 -1.499679,1.42012 -0.523121,0.48568 -0.918325,0.83407 -1.075757,1.07889 -0.157433,0.24483 -0.07726,0.38576 0.191534,0.4445 0.26879,0.0587 0.726099,0.0356 1.19044,-0.14085 0.464342,-0.17646 0.935879,-0.50619 1.366681,-0.8762 0.430803,-0.37001 0.820904,-0.78031 0.975402,-1.15029 0.154498,-0.36997 0.0733,-0.6999 -0.06346,-0.8986 -0.136757,-0.1987 -0.329305,-0.26596 -0.465274,-0.27563 -0.13597,-0.01 -0.215134,0.0384 -0.254754,0.0625 -0.03962,0.0241 -0.03962,0.0241 -0.365138,0.33559 z"
           id="path6000" />
        <path
           style="fill:#ffa537;fill-opacity:1;stroke:none;stroke-width:0.264583px;stroke-linecap:butt;stroke-linejoin:miter;stroke-opacity:1"
           d="m 97.41811,214.07969 c -0.04166,0.22579 -0.08304,0.50557 -0.01817,0.72363 0.06487,0.21806 0.235659,0.37439 0.491494,0.40303 0.255836,0.0287 0.596781,-0.0701 0.785231,-0.30365 0.18845,-0.23357 0.224582,-0.60226 0.193652,-0.90304 -0.03093,-0.30078 -0.129074,-0.53373 -0.293953,-0.6315 -0.164878,-0.0978 -0.396571,-0.06 -0.579821,-0.0137 -0.18325,0.0462 -0.317961,0.10098 -0.406387,0.21435 -0.08843,0.11338 -0.130383,0.28513 -0.172044,0.51092 z"
           id="path6004" />
        <path
           style="fill:#ffa537;fill-opacity:1;stroke:none;stroke-width:0.264583px;stroke-linecap:butt;stroke-linejoin:miter;stroke-opacity:1"
           d="m 94.970718,223.97459 c -0.189061,0.15274 -0.372093,0.37769 -0.517752,0.61519 -0.145659,0.2375 -0.253905,0.48745 -0.36879,0.6818 -0.114884,0.19434 -0.236435,0.33318 -0.22421,0.51831 0.01223,0.18512 0.158006,0.41622 0.366959,0.44351 0.208954,0.0273 0.481197,-0.1489 0.785564,-0.40148 0.304368,-0.25258 0.640901,-0.58159 0.849842,-0.85743 0.208942,-0.27584 0.29033,-0.49864 0.217094,-0.70865 -0.07324,-0.21002 -0.301429,-0.40733 -0.513065,-0.46591 -0.211636,-0.0586 -0.406581,0.0219 -0.595642,0.17466 z"
           id="path6008" />
        <path
           style="fill:#ffa537;fill-opacity:1;stroke:none;stroke-width:0.264583px;stroke-linecap:butt;stroke-linejoin:miter;stroke-opacity:1"
           d="m 91.158257,235.38695 c -0.06862,-0.50538 -0.20591,-1.51642 -0.236681,-2.35653 -0.03077,-0.8401 0.04504,-1.50919 0.01473,-2.13004 -0.0303,-0.62084 -0.166809,-1.19349 -0.4631,-1.64583 -0.296292,-0.45234 -0.732976,-0.76999 -1.155787,-0.80596 -0.422811,-0.036 -0.8217,0.21713 -1.050439,0.5187 -0.228739,0.30156 -0.28721,0.65131 -0.215876,1.04966 0.07133,0.39834 0.272282,0.84516 0.547854,1.27649 0.275573,0.43132 0.625663,0.84717 0.893706,1.37784 0.268043,0.53067 0.45418,1.17611 0.532495,1.57272 0.07831,0.39661 0.04894,0.54448 -0.07798,0.5404 -0.126919,-0.004 -0.351715,-0.16011 -0.598935,-0.34857 -0.24722,-0.18846 -0.516837,-0.40937 -0.671181,-0.73016 -0.154344,-0.32079 -0.193144,-0.74148 -0.377939,-1.2956 -0.184795,-0.55413 -0.515694,-1.24167 -0.922937,-1.80973 -0.407242,-0.56805 -0.890926,-1.01653 -1.524442,-1.4174 -0.633515,-0.40088 -1.41687,-0.75402 -2.019794,-0.92159 -0.602924,-0.16757 -1.02532,-0.14941 -1.228557,0.0337 -0.203237,0.18311 -0.187067,0.53086 0.19942,1.12435 0.386487,0.59349 1.15752,1.44874 1.91737,2.29839 0.759851,0.84965 1.515718,1.70168 2.268074,2.3337 0.752356,0.63203 1.501086,1.04413 2.110218,1.48961 0.609131,0.44547 1.078674,0.9242 1.415347,1.20186 0.336674,0.27766 0.540387,0.35439 0.63697,0.17922 0.09658,-0.17517 0.08634,-0.60237 0.08121,-0.81611 -0.0051,-0.21374 -0.0051,-0.21375 -0.07375,-0.71912 z"
           id="path6012" />
        <path
           id="path6016"
           style="fill:#ffa537;fill-opacity:1;stroke:none;stroke-width:0.999999px;stroke-linecap:butt;stroke-linejoin:miter;stroke-opacity:1"
           d="m 310.05078,880.50977 c -1.0438,-0.005 -1.85765,0.34043 -2.35742,0.98437 -0.99955,1.28788 -0.74082,3.7645 0.30078,7.17188 1.0416,3.40737 2.86545,7.74553 6.09375,13.63281 3.2283,5.88728 7.86051,13.32387 10.94727,18.97851 0.87119,1.59594 1.61551,3.0451 2.25781,4.35352 a 347.09741,361.92904 0 0 0 5.32422,1.04883 c -0.74227,-2.00217 -1.82971,-4.45447 -3.48242,-7.13867 -2.11533,-3.43554 -5.14958,-7.23863 -6.875,-9.91211 -1.72543,-2.67348 -2.14109,-4.21738 -1.75586,-5.94336 0.38522,-1.72598 1.54989,-3.59685 2.18554,-6.02149 0.63566,-2.42463 0.69507,-5.32774 -0.98047,-8.34961 -1.67553,-3.02187 -5.08843,-6.16166 -7.92382,-7.68359 -1.4177,-0.76096 -2.69058,-1.11609 -3.73438,-1.12109 z"
           transform="scale(0.26458333)" />
        <path
           id="path6024"
           style="fill:#ffa537;fill-opacity:1;stroke:none;stroke-width:0.999999px;stroke-linecap:butt;stroke-linejoin:miter;stroke-opacity:1"
           d="m 246.97656,822.1582 c -0.22618,0.004 -0.39509,0.30661 -0.46875,0.9336 -0.23572,2.00636 0.50032,7.3328 0.83594,11.69531 0.33562,4.36251 0.27118,7.76092 0.43164,11.90234 0.16047,4.14143 0.54663,9.0267 0.48633,13.44532 -0.0603,4.41861 -0.56758,8.37144 -1,10.55859 -0.43242,2.18715 -0.79061,2.60793 -1.74414,-0.58008 -0.95353,-3.18801 -2.5029,-9.9875 -3.50196,-13.82422 -0.99905,-3.83671 -1.44759,-4.71037 -1.64062,-3.71289 -0.19303,0.99748 -0.12914,3.86681 -0.31641,9.22266 -0.18726,5.35585 -0.62564,13.19777 -0.72656,20.07812 -0.0668,4.55178 0.0168,8.58766 0.11328,11.71875 a 347.09741,361.92904 0 0 0 31.42969,14.87891 c 0.48289,-4.30402 0.30093,-9.71852 0.46484,-14.41992 0.20788,-5.96249 0.97541,-10.77063 1.34571,-14.47657 0.37029,-3.70593 0.34374,-6.30968 -0.24219,-8.18554 -0.58593,-1.87586 -1.73248,-3.02273 -3.48242,-3.57813 -1.74994,-0.55539 -4.10231,-0.51932 -5.61914,-0.0488 -1.51684,0.4705 -2.19637,1.37474 -2.79492,3.92969 -0.59856,2.55495 -1.11715,6.75935 -1.54688,9.45703 -0.42973,2.69769 -0.77184,3.88949 -1.59766,4.24805 -0.82581,0.35856 -2.1372,-0.11571 -2.70117,-1.04297 -0.56397,-0.92725 -0.37832,-2.3077 -0.5957,-5.90234 -0.21738,-3.59465 -0.83646,-9.40339 -1.375,-15.75196 -0.53854,-6.34856 -0.99632,-13.23775 -1.57813,-19.82617 -0.5818,-6.58841 -1.28754,-12.87481 -2.24414,-16.67578 -0.65765,-2.61316 -1.43405,-4.05152 -1.93164,-4.04297 z"
           transform="scale(0.26458333)" />
        <path
           id="path6028"
           style="fill:#ffa537;fill-opacity:1;stroke:none;stroke-width:0.999999px;stroke-linecap:butt;stroke-linejoin:miter;stroke-opacity:1"
           d="m 234.00781,778.16602 c -0.14822,-0.0713 -0.42944,0.47762 -0.83593,1.35937 -0.81299,1.76351 -2.12806,4.85746 -4.22071,9.77344 -2.09264,4.91597 -4.96127,11.6544 -7.63281,18.31445 -2.67154,6.66005 -5.14545,13.241 -7.69531,19.08984 -2.54986,5.84885 -5.17579,10.96419 -6.64453,13.4336 -1.46875,2.46941 -1.7827,2.29098 -1.59766,1.11328 0.18504,-1.1777 0.87007,-3.35356 2.15234,-7.14258 1.28228,-3.78901 3.16296,-9.18985 4.27344,-14.01562 1.11048,-4.82578 1.46676,-9.27102 2.54102,-13.77344 1.07425,-4.50242 2.87425,-9.15978 4.15039,-12.61914 1.27613,-3.45936 2.05878,-5.81493 2.08398,-6.75195 0.0252,-0.93703 -0.69332,-0.50122 -1.62305,0.80078 -0.92972,1.302 -2.07,3.46916 -3.43359,6.65234 -1.36359,3.18319 -2.94879,7.38236 -4.32227,12.06641 -1.37347,4.68404 -2.53489,9.85336 -4.20117,14.79687 -1.66628,4.94352 -3.83772,9.66145 -5.02539,13.16797 -1.18766,3.50652 -1.39231,5.80087 -1.67968,6.97852 -0.28738,1.17764 -0.65887,1.23976 -1.05469,0.25195 -0.39582,-0.98781 -0.81582,-3.02778 -0.76953,-6.66016 0.0463,-3.63237 0.55891,-8.85704 0.72656,-13.40234 0.16765,-4.5453 -0.009,-8.40956 -0.34961,-10.45508 -0.34066,-2.04552 -0.84614,-2.27061 -1.10352,-0.90625 -0.25737,1.36436 -0.26448,4.31676 -0.50586,8.92188 -0.24137,4.60512 -0.73084,11.05735 -1.03515,15.84961 -0.30432,4.79225 -0.43102,8.02147 -1.08399,11.63281 -0.65296,3.61133 -1.83306,7.60342 -2.45117,10.96875 -0.34081,1.85561 -0.50524,3.53678 -0.51172,5.63281 a 347.09741,361.92904 0 0 0 18.53516,13.19336 c 0.0249,-2.86349 0.33467,-5.29648 0.93164,-8.38672 0.77087,-3.99044 2.01516,-9.08789 2.87891,-11.57812 0.86374,-2.49023 1.34524,-2.37122 1.5039,-1.77149 0.15867,0.59973 -0.004,1.68041 0.11328,5.58203 0.1172,3.90163 0.51308,10.62364 0.61524,15.10742 0.0467,2.05045 0.0324,3.60584 0.0215,5.02149 a 347.09741,361.92904 0 0 0 9.85938,6.11523 c 0.75831,-3.17683 1.71698,-7.32531 2.55078,-11.54101 1.19217,-6.02765 2.10775,-12.0715 2.51953,-20.32813 0.41178,-8.25662 0.31975,-18.72531 0.32031,-28.63672 5.7e-4,-9.9114 0.0924,-19.26451 0.54102,-27.35937 0.44856,-8.09486 1.25314,-14.93144 1.5,-18.13281 0.12343,-1.60069 0.1072,-2.29202 -0.041,-2.36328 z"
           transform="scale(0.26458333)" />
        <path
           id="path6032"
           style="fill:#ffa537;fill-opacity:1;stroke:none;stroke-width:0.999999px;stroke-linecap:butt;stroke-linejoin:miter;stroke-opacity:1"
           d="m 111.96289,747.11719 c -0.12893,-0.0163 -0.1976,0.0645 -0.20312,0.23437 -0.0221,0.67949 0.97417,2.79646 1.76953,7.0625 0.79536,4.26605 1.38968,10.67997 2.26562,15.65039 0.87594,4.97042 2.03287,8.49684 2.20313,11.78125 0.0762,1.47025 -0.0487,2.88366 -0.23633,4.16992 a 347.09741,361.92904 0 0 0 14.35351,18.94336 c -0.008,-0.17785 -0.0163,-0.35616 -0.0293,-0.53906 -0.28446,-3.99688 -1.80747,-9.26943 -3.32617,-13.82031 -1.5187,-4.55088 -3.03391,-8.37906 -4.22266,-13.10156 -1.18875,-4.72251 -2.05052,-10.33937 -3.77539,-15.37305 -1.72487,-5.03368 -4.31326,-9.48454 -6.12695,-12.08984 -1.36027,-1.95398 -2.28509,-2.86919 -2.67188,-2.91797 z"
           transform="scale(0.26458333)" />
        <path
           id="path6036"
           style="fill:#ffa537;fill-opacity:1;stroke:none;stroke-width:0.999999px;stroke-linecap:butt;stroke-linejoin:miter;stroke-opacity:1"
           d="m 161.125,708.61914 c -0.79828,-0.0121 -1.55173,0.66305 -1.95312,2.0293 -0.64224,2.186 -0.38354,6.14032 0.25195,8.99804 0.63549,2.85773 1.64614,4.61766 2.46094,7.77149 0.81479,3.15383 1.4351,7.70205 1.6289,15.31641 0.1938,7.61435 -0.0388,18.29565 0.31641,27.46289 0.35517,9.16723 1.29643,16.8189 1.6914,25.52734 0.39498,8.70844 0.24526,18.47203 -0.23242,27.50781 -0.31448,5.94884 -0.76776,11.56733 -1.0039,16.5 a 347.09741,361.92904 0 0 0 3.42968,3.07813 c -0.11677,-3.716 -0.33927,-7.60411 -0.31836,-11.38867 0.03,-5.4338 0.5782,-10.63136 1.19336,-14.625 0.61517,-3.99365 1.2965,-6.78305 1.42774,-11.51368 0.13124,-4.73062 -0.30452,-11.66871 -0.69336,-19.22265 -0.38884,-7.55395 -0.73813,-15.85525 -1.12305,-22.6875 -0.38492,-6.83226 -0.80589,-12.19688 -1.32422,-17.00782 -0.51832,-4.81093 -1.13428,-9.06896 -1.18164,-11.53125 -0.0474,-2.46228 0.47473,-3.12769 0.55664,-3.75586 0.0819,-0.62816 -0.27728,-1.22064 0.004,-2.52148 0.28119,-1.30084 1.20419,-3.30862 1.16797,-5.37109 -0.0362,-2.06247 -1.03318,-4.17976 -1.94727,-6.78125 -0.91409,-2.6015 -1.74647,-5.68582 -2.93359,-7.02149 -0.44517,-0.50087 -0.939,-0.75639 -1.41797,-0.76367 z"
           transform="scale(0.26458333)" />
        <path
           id="path6040"
           style="fill:#ffa537;fill-opacity:1;stroke:none;stroke-width:0.999999px;stroke-linecap:butt;stroke-linejoin:miter;stroke-opacity:1"
           d="m 156.57031,733.03711 c -0.10465,0.0326 -0.21533,0.31185 -0.50781,1.05273 -0.46796,1.18542 -1.40335,3.55433 -1.59961,8.32227 -0.19625,4.76794 0.34654,11.9326 0.75195,21.43359 0.40541,9.50099 0.67302,21.33867 0.39063,30.21289 -0.28239,8.87423 -1.11422,14.78631 -1.72266,22.17969 -0.3298,4.00753 -0.59119,8.4465 -0.64843,12.48242 a 347.09741,361.92904 0 0 0 7.95703,8.23633 c 0.61203,-3.33577 0.86997,-7.96769 0.89648,-15.40234 0.0287,-8.04451 -0.21296,-19.36669 -0.44531,-29.05469 -0.23235,-9.688 -0.45649,-17.74236 -0.60938,-24.93945 -0.15289,-7.1971 -0.2347,-13.53651 -0.42773,-18.16993 -0.19304,-4.63341 -0.49584,-7.55971 -0.93359,-9.73046 -0.43776,-2.17075 -1.01118,-3.58431 -1.55665,-4.58399 -0.54546,-0.99968 -1.06403,-1.58562 -1.32421,-1.8789 -0.0976,-0.10999 -0.15792,-0.17971 -0.22071,-0.16016 z"
           transform="scale(0.26458333)" />
        <path
           style="fill:#ffa537;fill-opacity:1;stroke:none;stroke-width:0.264583px;stroke-linecap:butt;stroke-linejoin:miter;stroke-opacity:1"
           d="m 35.26519,202.97546 c -0.169717,0.0327 -0.220602,0.0203 -0.275165,0.24305 -0.05456,0.22274 -0.112449,0.68049 -0.07541,1.35697 0.03704,0.67648 0.168934,1.57158 0.33241,2.11708 0.163476,0.54549 0.358311,0.7414 0.561975,0.54169 0.203663,-0.1997 0.416463,-0.79488 0.577805,-1.51048 0.161341,-0.7156 0.271191,-1.55165 0.200307,-2.06113 -0.07088,-0.50948 -0.322827,-0.69237 -0.593197,-0.74504 -0.27037,-0.0527 -0.559011,0.0251 -0.728728,0.0579 z"
           id="path6044" />
        <path
           id="path6056"
           style="fill:#ffa537;fill-opacity:1;stroke:none;stroke-width:0.999999px;stroke-linecap:butt;stroke-linejoin:miter;stroke-opacity:1"
           d="m 176.40625,768.64258 c -0.18925,0.0293 -0.32303,0.4116 -0.37305,1.23828 -0.16004,2.64537 0.53238,9.84074 0.86133,16.5332 0.32895,6.69246 0.29543,12.88051 0.50195,18.89453 0.20653,6.01403 0.65285,11.85362 0.33594,20.00977 -0.3169,8.15615 -1.39798,18.62848 -1.82422,24.57812 -0.007,0.0917 -0.009,0.16044 -0.0156,0.25 a 347.09741,361.92904 0 0 0 5.22265,4.59961 c -0.0472,-1.55659 -0.0908,-3.30155 -0.0312,-5.31445 0.12917,-4.36461 0.73676,-9.94461 1.04688,-15.41797 0.31012,-5.47336 0.32418,-10.84004 0.58398,-16.18164 0.25981,-5.3416 0.76598,-10.65786 0.52539,-15.94141 -0.24058,-5.28354 -1.22786,-10.53251 -2.18945,-15.66796 -0.96159,-5.13546 -1.89752,-10.15824 -2.87109,-13.6211 -0.66934,-2.38071 -1.3571,-4.02343 -1.77344,-3.95898 z"
           transform="scale(0.26458333)" />
        <path
           id="path6060"
           style="fill:#ffa537;fill-opacity:1;stroke:none;stroke-width:0.999999px;stroke-linecap:butt;stroke-linejoin:miter;stroke-opacity:1"
           d="m 261.74219,777.84375 c -0.59722,0.081 -0.88043,2.18638 -0.23047,7.91602 0.94539,8.33401 3.86535,24.33597 6.5,37.54101 2.63465,13.20504 4.98299,23.61248 6.38867,33.81641 1.40568,10.20392 1.86886,20.20311 2.27539,29.9082 0.39769,9.49396 0.73792,18.59675 0.91406,23.89844 a 347.09741,361.92904 0 0 0 4.75196,1.73437 c 0.002,-2.32984 -0.0921,-4.80981 -0.28321,-7.09375 -0.49393,-5.90447 -1.62396,-10.46094 -2.18554,-16.61133 -0.56159,-6.15038 -0.55395,-13.89345 -0.60547,-19.00195 -0.0515,-5.1085 -0.16076,-7.58266 0.004,-8.25586 0.16467,-0.6732 0.60139,0.45349 1.08594,4.62305 0.48455,4.16956 1.01702,11.38182 2.22852,18.93945 1.21149,7.55764 3.1032,15.45951 4.38281,22.32031 0.47865,2.56634 0.87291,4.9863 1.27539,7.23243 a 347.09741,361.92904 0 0 0 8.4082,2.88867 c -0.15738,-1.3882 -0.32409,-2.78467 -0.47851,-4.10156 -0.68594,-5.84952 -1.08257,-10.27666 -2.19531,-16.25586 -1.11274,-5.97921 -2.94321,-13.50833 -5.41993,-21.93555 -2.47671,-8.42722 -5.59918,-17.75115 -7.21679,-24.89844 -1.61762,-7.14728 -1.72797,-12.1189 -2.74414,-19.11914 -1.01618,-7.00024 -2.93895,-16.02935 -4.45508,-24.42578 -1.51614,-8.39643 -2.62586,-16.15954 -3.81446,-20.67969 -1.18859,-4.52015 -2.45578,-5.79659 -2.83007,-4.99609 -0.3743,0.8005 0.14521,3.67923 0.87109,9.15625 0.72588,5.47702 1.65734,13.55167 2.61328,20.48633 0.95594,6.93465 1.93576,12.72756 2.12696,14.76172 0.19119,2.03415 -0.40738,0.30869 -1.70313,-6.17383 -1.29575,-6.48253 -3.28903,-17.72208 -4.86914,-25.75196 -1.58011,-8.02987 -2.74594,-12.84982 -3.84375,-14.92773 -0.34307,-0.64935 -0.67971,-1.03097 -0.95117,-0.99414 z"
           transform="scale(0.26458333)" />
        <path
           style="fill:#ffa537;fill-opacity:1;stroke:none;stroke-width:0.264583px;stroke-linecap:butt;stroke-linejoin:miter;stroke-opacity:1"
           d="m 78.369407,225.3294 c -0.0021,-0.10151 -0.0064,-0.30479 -0.166322,-0.80901 -0.159911,-0.50422 -0.475562,-1.30938 -0.873298,-2.02677 -0.397735,-0.7174 -0.877626,-1.34696 -1.224982,-1.52629 -0.347355,-0.17932 -0.561904,0.0918 -0.528786,0.92252 0.03312,0.83068 0.313804,2.22053 0.637632,3.65467 0.323829,1.43414 0.690762,2.91247 1.189485,3.76898 0.498724,0.85652 1.128964,1.09136 1.298434,0.7284 0.16947,-0.36297 -0.121609,-1.32392 -0.258363,-2.22699 -0.136754,-0.90308 -0.119075,-1.74815 -0.105258,-2.13576 0.01382,-0.38762 0.02372,-0.31778 0.02866,-0.28301 0.0049,0.0348 0.0049,0.0348 0.0028,-0.0667 z"
           id="path6064" />
      </g>
      <path
         id="path2831"
         style="fill:#391834;fill-opacity:1;stroke:none;stroke-width:0.264583px;stroke-linecap:butt;stroke-linejoin:miter;stroke-opacity:1"
         d="m 79.476803,31.114896 c -0.584515,1.227662 -1.398842,3.063994 -2.252059,5.546948 -1.148641,3.34265 -2.365299,7.851941 -2.454114,11.514542 -0.08882,3.662603 0.950359,6.478122 2.820498,8.570021 0.04656,0.05208 0.09605,0.101769 0.143661,0.15296 C 76.418211,56.852819 75.107474,56.724523 73.79446,56.427562 71.632746,55.938655 69.454714,55.10685 67.488902,54.11711 66.50043,53.491569 65.510454,52.801199 64.63998,52.009227 63.28565,50.777034 62.220884,49.300166 61.533711,47.490123 60.846538,45.680082 60.537282,43.537126 60.392696,41.38817 c -0.04925,-0.731997 -0.07871,-1.465617 -0.09922,-2.209684 -0.157946,0.899531 -0.320487,1.801395 -0.431499,2.670122 -0.136493,1.068139 -0.209872,2.096815 -0.23151,3.095935 -0.02164,0.999119 0.0085,1.968791 0.07751,2.91765 0.138091,1.897721 0.43338,3.713506 0.555003,4.629176 0.121642,0.91567 0.06954,0.93103 0.04341,0.938962 -0.02614,0.0079 -0.02638,0.0081 -0.329697,-0.550871 -0.15165,-0.279508 -0.379293,-0.698688 -0.671787,-1.342554 -0.292494,-0.643869 -0.649906,-1.512641 -1.061434,-2.690275 -0.319746,-0.914993 -0.664371,-2.1545 -0.995288,-3.408061 -0.05185,1.002334 -0.09512,1.999308 -0.121955,2.987932 -0.03561,1.311923 -0.04297,2.587413 -0.03876,3.696414 -0.185367,0.114673 -0.385871,0.248838 -0.651123,0.449585 -1.239367,0.937977 -3.485179,2.86539 -4.745964,4.853451 -1.260782,1.988058 -1.536298,4.036004 -1.682583,6.458519 -0.146286,2.422546 -0.163666,5.219509 0.305408,7.835698 0.469072,2.61619 1.424207,5.051417 2.121316,6.604765 0.233338,0.519938 0.452077,0.918811 0.689882,1.277443 0.100997,0.185581 0.209738,0.379052 0.33228,0.586525 1.201989,2.035069 3.441414,5.179854 5.856488,7.15667 1.535287,1.256681 3.141224,2.04062 4.493266,2.486152 -0.0031,0.54688 0.0019,1.03664 -0.01394,1.699122 -0.1065,4.439124 -0.394872,11.649544 -0.630452,15.604734 -0.235582,3.95515 -0.418134,4.65465 -0.801502,5.55521 -0.383368,0.90057 -0.967639,2.00212 -1.442289,3.04271 -0.474649,1.0406 -0.839666,2.0205 -0.885219,2.86339 -0.02373,0.43912 0.04845,0.83769 0.193789,1.20975 0.02566,0.27335 0.181525,0.52917 0.46767,0.82837 0.0399,0.0417 0.0826,0.0848 0.127642,0.12816 7.94e-4,10e-4 0.0011,0.002 0.0021,0.003 0.0042,0.005 0.01074,0.008 0.01498,0.0129 0.143962,0.13726 0.314854,0.282 0.513664,0.43304 0.50577,0.41808 1.074796,0.79289 1.604553,1.0263 0.05466,0.0241 0.10732,0.0209 0.160713,0.0424 0.386379,0.19259 0.816795,0.38786 1.297596,0.58343 0.880486,0.35814 1.927733,0.71669 2.9962,1.07074 -0.235503,0.45006 -0.159758,0.3312 -0.584978,1.11207 -1.320477,2.42492 -3.742084,6.74499 -5.731949,10.19835 -1.989868,3.45336 -3.54752,6.03963 -4.439007,7.84396 -0.891488,1.80433 -1.116606,2.82671 -1.162204,3.7791 -0.0456,0.95239 0.08827,1.83447 1.174607,2.72283 1.086337,0.88836 3.12478,1.78307 4.801256,2.41587 1.676477,0.63284 2.99044,1.00413 3.827159,1.30845 0.836715,0.30432 1.195797,0.54158 1.296042,0.75448 0.09094,0.19313 -0.0735,0.41349 -0.519348,0.97771 -0.678389,0.37769 -1.323628,0.7954 -1.82056,1.23714 -1.359075,1.20814 -1.611876,2.59352 -1.425237,3.82406 0.186643,1.23053 0.812488,2.30603 1.634527,3.15123 0.822037,0.84518 1.840072,1.46034 3.199805,1.96835 0.686252,0.25639 1.459336,0.48523 2.222603,0.67696 0.04211,0.16219 0.09053,0.24551 0.131257,0.42581 0.520293,2.30341 0.9094,6.1479 1.009759,10.09758 -0.433814,1.05885 -1.02774,2.34915 -1.757,3.3786 -1.081146,1.5262 -2.450563,2.46615 -3.387389,4.23695 -0.936826,1.77081 -1.440884,4.37196 -1.762168,6.92568 -0.32128,2.55372 -0.459729,5.06022 0.584462,7.28224 1.044189,2.22203 3.270227,4.15964 5.624979,5.11235 2.354754,0.95271 4.838025,0.92071 8.623762,0.82424 3.785741,-0.0965 8.874088,-0.25732 11.685077,-0.36018 2.810986,-0.10287 3.348572,-0.14857 3.654557,-0.42634 0.305983,-0.27775 0.382535,-0.78822 0.535885,-1.88257 0.108415,-0.7737 0.254555,-1.84234 0.213939,-3.50211 2.9693,0.0639 5.59635,0.0832 7.32307,0.10284 0.50114,0.006 0.84585,0.018 1.22318,0.0289 -0.15784,1.32329 -0.19512,2.63712 -0.0527,3.91914 0.30733,2.76667 1.44401,5.38534 2.93677,7.7525 0.7711,1.22277 1.63918,2.37729 2.7435,3.41064 -0.22928,0.92493 -0.66526,2.07272 -1.39474,4.01939 -1.506,4.01888 -4.24242,11.41922 -8.424814,19.37091 -4.18239,7.9517 -9.810509,16.45456 -12.624551,20.70571 -1.154105,1.74351 -1.831721,2.761 -2.43396,3.57601 1.119991,-1.02061 2.256697,-2.07151 3.323312,-3.02048 3.523575,-3.13493 6.566638,-5.79506 9.464021,-8.28218 2.897382,-2.48713 5.649412,-4.80129 8.591722,-7.24297 1.47116,-1.22085 2.9895,-2.47351 4.59352,-3.74241 1.60402,-1.2689 3.29369,-2.55377 5.10615,-3.83904 1.81246,-1.28527 3.74812,-2.57062 5.8446,-3.84059 1.04824,-0.63499 2.13667,-1.26614 3.27009,-1.89136 1.13342,-0.62522 2.31179,-1.24472 3.53983,-1.85622 1.22803,-0.6115 2.50582,-1.21532 3.81941,-1.80919 1.31359,-0.59387 2.66282,-1.17786 4.03438,-1.75028 2.74312,-1.14485 5.5744,-2.24276 8.38398,-3.27887 2.80958,-1.03611 5.59726,-2.01054 8.25273,-2.90732 2.65546,-0.89677 5.1787,-1.71589 7.45949,-2.44274 4.56157,-1.45371 8.15323,-2.53692 10.99468,-3.35949 2.80502,-0.81202 4.85618,-1.36289 6.41097,-1.7725 -0.0307,-0.0287 -0.0638,-0.0619 -0.0935,-0.0894 -0.64378,-0.59399 -1.10664,-1.02667 -1.5937,-1.67535 -0.0663,-0.0883 -0.14879,-0.22688 -0.22221,-0.33848 -0.69719,-1.71009 -1.48956,-4.18938 -2.45928,-8.54573 -1.83644,-8.24995 -4.3054,-23.20311 -5.72678,-32.31741 -0.86016,-5.51558 -1.31407,-8.74493 -1.60507,-10.91871 1.91975,-3.54536 3.73936,-8.0429 5.30768,-11.83959 1.8281,-4.42556 3.3153,-7.88938 4.9475,-11.39517 1.63221,-3.50579 3.40919,-7.05349 4.3646,-9.85263 0.9554,-2.79913 1.08932,-4.84999 1.08934,-6.86418 1e-5,-2.01419 -0.13404,-3.99147 -0.11886,-5.21467 0.0152,-1.22319 0.17934,-1.69172 0.4563,-2.01434 0.27697,-0.32262 0.66678,-0.49942 1.02268,-1.10175 0.3559,-0.60232 0.6784,-1.63071 0.7059,-2.37608 0.0275,-0.74533 -0.24024,-1.20739 -0.40463,-2.22363 -0.16438,-1.01625 -0.22534,-2.58639 -0.17363,-4.701009 0.0169,-0.688957 0.0394,-1.481794 0.0615,-2.252059 0.34795,-2.516315 0.51848,-5.721975 0.42529,-7.816059 -0.1115,-2.505803 -0.59937,-3.415512 -1.29501,-4.241602 -0.30842,-0.366262 -0.65956,-0.716118 -1.03404,-1.065051 0.2611,-1.359966 0.74526,-3.315639 0.79581,-5.247743 0.0579,-2.211909 -0.47189,-4.341804 -1.28416,-5.860108 -0.81227,-1.518301 -1.90766,-2.425036 -3.0334,-3.152262 -0.95775,-0.618701 -1.9862,-1.124984 -3.73776,-1.889289 -0.0689,-0.587277 -0.20144,-1.158893 -0.35347,-1.811776 -0.29039,-1.247148 -0.65015,-2.791757 -1.66036,-3.931545 -1.01021,-1.139785 -2.67113,-1.874117 -4.42195,-2.278411 -1.2557,-0.289962 -2.55291,-0.409588 -3.58686,-0.494028 0.0188,-1.349338 -0.17979,-2.897491 -0.84078,-4.832262 -0.70561,-2.065369 -1.9276,-4.561245 -4.03593,-6.514849 -2.10833,-1.953604 -5.1029,-3.364777 -8.34729,-4.242636 -3.2444,-0.877856 -6.73822,-1.22228 -11.80703,-1.205092 -5.06882,0.0172 -11.71226,0.39611 -17.25011,0.929658 -4.46521,0.430202 -8.08687,0.976726 -11.39155,1.563212 -1.31836,-0.0032 -2.6317,0.0027 -3.81528,0.0052 -4.2995,0.0089 -6.879411,-0.03945 -9.099183,-0.926558 -2.219772,-0.887111 -4.079219,-2.613035 -5.427575,-4.003373 -0.886214,-0.913805 -1.552482,-1.687094 -2.260843,-2.656168 0.09861,0.450313 0.176715,0.911347 0.312123,1.343586 0.229844,0.733676 0.512112,1.445443 0.854729,2.146639 0.342617,0.701198 0.745503,1.391766 1.217496,2.084628 0.471995,0.692862 1.013121,1.387853 1.530141,2.006595 0.517017,0.618744 1.010113,1.161335 1.386993,1.550294 0.753793,0.777914 1.042009,0.941054 1.176674,1.047998 0.134665,0.106942 0.116242,0.157951 0.106971,0.183452 -0.0093,0.02551 -0.0092,0.02532 -1.476396,0.166396 -1.467202,0.141087 -4.401823,0.423585 -7.022828,0.567926 -1.310502,0.07217 -2.542571,0.109614 -3.625617,0.04806 -0.541525,-0.03078 -1.046117,-0.08616 -1.504302,-0.174667 -0.458184,-0.08851 -0.870122,-0.210156 -1.227314,-0.372587 -0.357196,-0.16243 -0.65939,-0.365614 -0.918292,-0.600998 -0.258903,-0.235381 -0.474652,-0.503108 -0.658358,-0.793232 -0.183705,-0.290126 -0.335552,-0.603001 -0.467153,-0.929661 -0.131604,-0.326644 -0.242605,-0.66684 -0.3452,-1.011822 -0.205189,-0.689964 -0.375914,-1.398209 -0.501777,-2.116151 -0.125865,-0.717941 -0.206938,-1.445807 -0.234611,-2.174028 -0.02767,-0.728221 -0.0016,-1.457126 0.08475,-2.261878 0.08633,-0.804749 0.23246,-1.684999 0.44545,-2.716628 0.204668,-0.991322 0.479197,-2.135285 0.820623,-3.356385 z m 66.817627,84.667184 c 0.15853,0.006 0.24128,0.0246 0.40669,0.0625 0.33081,0.0758 0.99215,0.22751 1.79834,0.61185 0.80619,0.38433 1.75697,1.0012 2.72645,2.02778 0.96948,1.02658 1.96158,2.46883 2.69131,4.72787 0.72972,2.25905 1.20586,5.34724 0.99167,8.35195 -0.2142,3.00471 -1.11862,5.92578 -1.86604,8.05171 -0.74741,2.12593 -1.3381,3.45661 -1.53789,6.32209 -0.19979,2.86548 -0.009,7.2656 1.14825,12.24111 1.15682,4.97552 3.27912,10.52633 5.74177,17.43822 2.46265,6.91189 5.26559,15.18471 6.66264,19.39416 1.39705,4.20945 1.38821,4.35518 -1.36994,5.5392 -2.75815,1.18401 -8.26585,3.40648 -14.52521,5.7614 -6.25936,2.35492 -13.26999,4.84209 -17.16743,6.11746 -3.89744,1.27537 -4.68117,1.33874 -5.52938,1.0449 -0.8482,-0.29385 -1.76089,-0.94497 -2.89698,-1.83504 -1.13609,-0.89006 -2.49544,-2.01889 -3.29179,-2.98637 -0.79634,-0.96749 -1.02905,-1.77372 -1.26762,-6.35052 -0.23856,-4.57681 -0.48309,-12.92433 -0.60255,-17.14366 -0.11945,-4.21933 -0.11396,-4.31043 0.15452,-4.46846 0.26848,-0.15802 0.7999,-0.38235 1.97352,-0.90124 1.17362,-0.51888 2.98946,-1.33227 4.74183,-2.7342 1.75237,-1.40192 3.44144,-3.39234 4.45916,-5.26582 1.01772,-1.87348 1.36398,-3.62973 1.63246,-5.10667 0.26848,-1.47694 0.45904,-2.67458 1.16013,-4.23695 0.7011,-1.56237 1.91254,-3.48925 3.57084,-6.00635 1.65831,-2.5171 3.76347,-5.62417 5.02709,-7.54425 1.26362,-1.92007 1.68572,-2.65351 1.91874,-3.07578 0.23303,-0.42226 0.27678,-0.53337 0.10801,-0.35863 -0.16877,0.17474 -0.55012,0.63557 -1.53686,1.6154 -0.98674,0.97984 -2.57868,2.47864 -3.87625,3.60185 -1.29757,1.12321 -2.30086,1.87112 -2.96054,2.2562 -0.65969,0.38507 -0.97597,0.40722 -1.2423,0.18655 -0.26634,-0.22068 -0.48262,-0.68479 -0.80305,-1.91616 -0.32044,-1.23138 -0.74491,-3.22994 -0.94827,-5.59243 -0.20336,-2.36249 -0.1855,-5.08858 -0.4563,-8.27908 -0.2708,-3.1905 -0.8307,-6.84558 -0.50694,-9.77666 0.32375,-2.93109 1.53136,-5.13785 3.33261,-6.95152 1.80124,-1.81365 4.19598,-3.23358 6.33088,-3.97392 2.1349,-0.74033 4.00977,-0.80121 4.94698,-0.83147 0.46861,-0.0151 0.70292,-0.0227 0.86145,-0.0171 z m -2.24431,2.26549 c -0.57748,2.7e-4 -1.7329,0.001 -2.94142,0.46406 -1.20853,0.46305 -2.47,1.38845 -3.55534,2.53989 -1.08534,1.15145 -1.99437,2.52922 -2.10736,4.00544 -0.11301,1.47623 0.57005,3.05088 1.35443,4.6576 0.78439,1.60672 1.66999,3.24528 1.93322,4.91598 0.26322,1.6707 -0.0958,3.37371 -0.66973,4.77077 -0.57395,1.39705 -1.36272,2.48789 -1.68827,3.1843 -0.32554,0.69642 -0.18827,0.99786 0.37724,1.20354 0.56551,0.20569 1.55942,0.31636 2.94866,-0.14469 1.38923,-0.46105 3.17407,-1.49351 4.6116,-2.91713 1.43754,-1.42363 2.52746,-3.23876 3.00757,-5.08962 0.48011,-1.85086 0.35012,-3.73759 -0.0284,-5.0617 -0.37855,-1.32411 -1.00589,-2.08538 -1.58233,-2.54197 -0.57644,-0.45658 -1.10197,-0.60862 -1.49914,-0.74414 -0.39716,-0.13551 -0.66586,-0.25476 -0.54105,-0.32504 0.12481,-0.0703 0.64326,-0.091 1.52963,0.0822 0.88636,0.17314 2.14038,0.53999 3.06441,1.24127 0.92402,0.70129 1.51843,1.73655 1.75906,2.91455 0.24063,1.178 0.12801,2.49882 -0.10283,3.92483 -0.23085,1.42601 -0.57986,2.95716 -0.70435,3.60495 -0.1245,0.64778 -0.0245,0.41237 0.27182,-0.22531 0.29631,-0.63769 0.78891,-1.67763 1.28157,-3.30368 0.49266,-1.62604 0.98516,-3.83824 1.04645,-6.04149 0.0613,-2.20325 -0.30908,-4.39743 -1.15446,-6.13709 -0.84537,-1.73966 -2.16569,-3.02473 -3.25044,-3.77858 -1.08475,-0.75386 -1.9339,-0.97646 -2.35851,-1.08779 -0.42462,-0.11133 -0.42453,-0.11144 -1.00201,-0.11111 z m -23.6461,14.2751 c 0.0287,0.0253 0.0383,0.0779 0.0408,0.154 0.0101,0.30447 -0.0916,0.98535 -0.72398,2.73368 -0.63238,1.74833 -1.79536,4.56422 -3.36052,7.48688 -1.56517,2.92267 -3.53276,5.9521 -5.74229,8.77311 -2.20952,2.82101 -4.66101,5.43354 -7.14737,7.79022 -2.48635,2.35669 -5.007235,4.45715 -6.316922,5.56814 -1.309688,1.11098 -1.407684,1.23243 -1.456759,1.29294 -0.04907,0.0605 -0.04941,0.0604 -0.04909,0.0119 2.65e-4,-0.0486 0.0011,-0.14594 0.270783,-2.26188 0.269676,-2.11593 0.8085,-6.25051 2.637049,-10.33993 1.828549,-4.08943 4.946809,-8.13317 7.813989,-11.0107 2.86718,-2.87753 5.48313,-4.58847 7.74475,-6.09472 2.26162,-1.50625 4.16841,-2.80792 5.18315,-3.49488 0.76105,-0.51521 1.0202,-0.68468 1.10639,-0.60874 z" />
      <path
         id="path4337"
         style="fill:#ffffff;stroke:none;stroke-width:0.264583px;stroke-linecap:butt;stroke-linejoin:miter;stroke-opacity:1"
         d="m 67.385032,123.98623 c -0.198998,0.38241 -0.152439,0.31596 -0.558104,1.06092 -1.320477,2.42491 -3.742084,6.74498 -5.731949,10.19834 -1.989868,3.45336 -3.54752,6.03963 -4.439007,7.84397 -0.891487,1.80432 -1.116605,2.82671 -1.162204,3.77909 -0.0456,0.95239 0.08827,1.83447 1.174608,2.72284 1.086336,0.88835 3.124779,1.78306 4.801256,2.41587 0.106143,0.0401 0.139155,0.0447 0.242363,0.0827 0.109379,-0.48895 0.309994,-1.06351 0.667142,-1.64383 0.623557,-1.01319 1.729176,-2.07593 2.627746,-3.00188 0.898573,-0.92595 1.589987,-1.71516 2.201416,-4.0535 0.611431,-2.33834 1.142841,-6.22622 1.620573,-9.59786 0.477734,-3.37165 0.901583,-6.22678 1.040764,-7.68067 0.139182,-1.45389 -0.0069,-1.50634 -0.464055,-1.63556 -0.457126,-0.12922 -1.225132,-0.33522 -1.818492,-0.45372 -0.06954,-0.0139 -0.136242,-0.0263 -0.202057,-0.0367 z" />
      <path
         id="path4341"
         style="fill:#ffffff;stroke:none;stroke-width:0.264583px;stroke-linecap:butt;stroke-linejoin:miter;stroke-opacity:1"
         d="m 63.805408,89.938179 c -0.0021,0.506754 0.0019,0.97169 -0.01291,1.592667 -0.1065,4.439124 -0.394872,11.649544 -0.630452,15.604734 -0.235582,3.95515 -0.418134,4.65465 -0.801502,5.55521 -0.383368,0.90057 -0.967639,2.00212 -1.442289,3.04271 -0.474649,1.0406 -0.839666,2.0205 -0.885219,2.86339 -0.02373,0.43912 0.04845,0.83769 0.193789,1.20975 0.02566,0.27335 0.181525,0.52917 0.46767,0.82837 0.0399,0.0417 0.0826,0.0848 0.127642,0.12816 7.94e-4,10e-4 0.0011,0.002 0.0021,0.003 0.0042,0.005 0.01074,0.008 0.01498,0.0129 0.143962,0.13726 0.314854,0.282 0.513664,0.43304 0.08026,0.0663 0.168622,0.12123 0.251664,0.18501 -0.01381,-0.46261 0.0071,-0.93284 0.108519,-1.33222 0.166015,-0.65353 0.546298,-1.1169 2.159042,-1.98851 1.612744,-0.87161 4.457523,-2.15113 6.655925,-3.16673 2.198401,-1.01561 3.750585,-1.76693 5.151106,-3.43959 1.400522,-1.67265 2.64972,-4.26672 3.236495,-6.89776 0.586777,-2.63105 0.511056,-5.298963 0.174151,-7.176312 -0.336907,-1.877348 -0.935056,-2.964121 -1.44849,-3.706233 -0.513435,-0.742114 -0.942216,-1.139539 -1.50947,-1.331185 -0.567256,-0.191648 -1.273302,-0.177098 -2.624129,-0.251147 -1.350828,-0.07405 -3.346627,-0.23699 -5.071009,-0.630971 -1.72438,-0.39398 -3.177268,-1.019127 -4.208529,-1.393195 -0.149408,-0.05419 -0.288028,-0.101716 -0.422712,-0.145211 z" />
      <path
         id="path4345"
         style="fill:#ffffff;stroke:none;stroke-width:0.264583px;stroke-linecap:butt;stroke-linejoin:miter;stroke-opacity:1"
         d="m 71.842126,164.17809 c -0.0034,-0.001 -0.0059,5.3e-4 -0.0088,0.003 -0.02297,0.0196 -0.05393,0.11063 -0.09095,0.24133 -0.03701,0.13071 -0.08006,0.30082 -0.01241,0.53847 0.06766,0.23766 0.245771,0.54272 0.302307,0.69453 0.05654,0.15182 -0.0089,0.15087 -0.387056,0.14987 -0.378161,-0.001 -1.068821,-0.002 -1.576649,0.0155 -0.136068,0.005 -0.258866,0.0107 -0.368454,0.0284 0.06345,0.0164 0.121118,0.0404 0.184486,0.0563 0.04211,0.16219 0.09053,0.24552 0.131257,0.42582 0.41977,1.85837 0.709158,4.7975 0.875401,7.90804 0.280987,0.26019 0.579562,0.54578 0.889352,0.8599 0.988007,1.00182 2.066377,2.25915 3.405475,3.74912 1.339096,1.48997 2.938593,3.21215 4.065903,4.39095 1.127307,1.17879 1.782172,1.81431 2.116148,1.96163 0.333978,0.14733 0.347385,-0.19361 0.612883,-1.19062 0.265499,-0.99701 0.783125,-2.64987 0.935345,-4.23747 0.152217,-1.5876 -0.06094,-3.10972 -0.481627,-4.46226 -0.420684,-1.35254 -1.048906,-2.53554 -1.811774,-3.52433 -0.76287,-0.98879 -1.660361,-1.78347 -2.717146,-2.31097 -1.056788,-0.5275 -2.272795,-0.78742 -3.302643,-1.61127 -1.029848,-0.82385 -1.873382,-2.21139 -2.3027,-2.93109 -0.375653,-0.62974 -0.434243,-0.74837 -0.45837,-0.75499 z" />
      <path
         id="path4525"
         style="fill:url(#linearGradient37176);fill-rule:nonzero;stroke:none;stroke-width:0.264583px;stroke-linecap:butt;stroke-linejoin:miter;stroke-opacity:1"
         d="m 79.476803,31.114896 c -0.584515,1.227662 -1.398842,3.063994 -2.252059,5.546948 -1.148641,3.34265 -2.365299,7.851941 -2.454114,11.514542 -0.08882,3.662603 0.950359,6.478122 2.820498,8.570021 0.04656,0.05208 0.09605,0.101769 0.143661,0.15296 -0.274707,-0.0097 -0.548415,-0.04181 -0.822688,-0.05943 1.293884,0.482211 2.713583,0.80209 4.217313,1.164789 3.725595,0.898612 7.952425,2.079413 11.505239,3.356385 3.552817,1.276969 6.431452,2.649506 8.516797,3.674192 2.08534,1.024686 3.37718,1.701551 4.01216,1.918748 0.63497,0.217196 0.61321,-0.02537 0.0124,-0.917258 -0.60081,-0.891889 -1.78118,-2.432989 -3.69021,-4.466394 -1.909022,-2.033405 -4.546699,-4.558575 -7.275524,-6.24613 -2.728825,-1.687557 -5.548521,-2.537251 -7.90081,-3.736723 C 83.95718,50.388076 82.072648,48.83857 80.985761,47.572287 80.551768,47.06666 80.246828,46.605611 80.034915,46.115012 79.91349,45.971394 79.775179,45.840084 79.67473,45.681448 79.491024,45.391321 79.339177,45.078446 79.207576,44.751786 79.075972,44.425148 78.964972,44.084947 78.862377,43.739964 78.657187,43.05 78.486462,42.341755 78.3606,41.623814 c -0.125865,-0.717942 -0.206939,-1.445808 -0.234612,-2.174029 -0.02767,-0.72822 -0.0016,-1.457126 0.08475,-2.261878 0.08633,-0.804748 0.23246,-1.684999 0.44545,-2.716628 0.204668,-0.991322 0.479197,-2.135285 0.820624,-3.356385 z m 59.290437,10.450526 c -1.59273,0.0054 -3.48924,0.100124 -5.30975,0.170532 1.0297,0.113977 2.05882,0.231735 3.01738,0.352949 3.07764,0.389183 5.36418,0.78732 7.66103,1.660363 2.29686,0.873046 4.60402,2.220635 6.66626,3.956865 2.06225,1.73623 3.87943,3.861134 5.30304,7.079671 1.4236,3.218537 2.45353,7.530716 2.99878,11.299568 0.54525,3.768855 0.60598,6.993845 0.63459,8.623247 0.0286,1.629402 0.0252,1.662943 -0.22634,0.609267 -0.25155,-1.05368 -0.75158,-3.194204 -1.70171,-5.727817 -0.95013,-2.533615 -2.35033,-5.460084 -3.94705,-7.985559 -1.59671,-2.525477 -3.38992,-4.649988 -5.30561,-6.5195 -1.9157,-1.869511 -3.95414,-3.484051 -6.18877,-4.709789 -2.23464,-1.225735 -4.66543,-2.062499 -7.10551,-2.622061 -2.44009,-0.559567 -4.889,-0.841719 -6.89261,-0.951365 -2.0036,-0.109643 -3.56155,-0.04646 -4.30826,0.0067 -0.74671,0.05318 -0.6824,0.09597 0.42633,0.470257 1.10873,0.374285 3.26159,1.079651 5.46323,2.013312 2.20165,0.933662 4.45207,2.095836 6.00636,2.966744 1.55427,0.870908 2.41255,1.450562 2.81584,1.744597 0.40329,0.294034 0.35154,0.302648 -0.38395,0.230994 -0.7355,-0.07165 -2.15504,-0.223427 -3.66955,-0.259416 -1.51451,-0.03599 -3.12371,0.04368 -4.36355,0.193786 -1.23985,0.150101 -2.10982,0.370478 -2.51251,0.48731 -0.40269,0.116832 -0.33872,0.130283 1.1343,0.791165 1.47301,0.660884 4.35465,1.969016 7.18095,3.717602 2.82631,1.748589 5.59746,3.937002 7.69566,6.056995 2.09819,2.119992 3.5235,4.171712 4.77852,6.157248 1.25501,1.985534 2.33971,3.904779 2.86959,4.86482 0.52988,0.960038 0.50486,0.960763 -0.80822,0.94516 -1.31308,-0.01561 -3.91413,-0.04756 -7.07761,0.322461 -3.16347,0.370017 -6.89245,1.142931 -10.82362,2.31407 -3.93117,1.171144 -8.0659,2.741279 -10.91717,3.93051 -2.85126,1.189233 -4.41885,1.997445 -5.77845,2.601909 -1.35961,0.604465 -2.51153,1.004642 -3.04788,1.212329 -0.53636,0.207687 -0.45759,0.222869 1.71669,0.363802 2.17429,0.140933 6.42798,0.406707 11.04946,-0.105936 4.62147,-0.512644 9.60286,-1.80426 13.48186,-2.886647 3.87899,-1.082384 6.65568,-1.955107 8.64495,-2.524392 1.98927,-0.569285 3.19074,-0.835226 4.11965,-1.152385 0.9289,-0.317161 1.58494,-0.685858 1.89807,-0.809254 0.31313,-0.123394 0.28371,-0.0013 0.0103,0.590663 -0.27337,0.592048 -0.79031,1.654371 -1.46141,2.822049 -0.67109,1.16768 -1.49668,2.440789 -1.83451,3.05046 -0.33783,0.609672 -0.18834,0.55575 0.49144,0.31936 0.67979,-0.236389 1.89005,-0.655621 3.53105,-1.55236 1.641,-0.896737 3.71279,-2.270548 5.33663,-3.345532 1.62383,-1.074984 2.79923,-1.850771 3.49281,-2.267561 0.69357,-0.41679 0.90536,-0.474626 1.16479,-0.495062 0.25941,-0.02043 0.56649,-0.0035 0.74362,-0.0016 0.17713,0.0019 0.22407,-0.01127 0.20929,-0.410829 -0.0148,-0.399568 -0.0908,-1.185957 -0.10749,-2.146638 -0.0167,-0.960681 0.026,-2.095508 0.0935,-2.517677 0.0675,-0.422164 0.15961,-0.131945 0.37568,0.496612 0.21608,0.628557 0.556,1.595443 1.44953,3.155363 0.89353,1.559919 2.34049,3.713159 3.85506,5.790861 1.51457,2.077701 3.09655,4.080002 4.70979,6.080249 1.61324,2.000247 3.25733,3.997899 4.27054,5.026565 1.01321,1.028668 1.39554,1.088175 1.73891,1.109493 0.26541,0.01648 0.51387,0.007 0.96325,-0.122473 0.33845,-2.50026 0.50688,-5.639864 0.41496,-7.705471 -0.1115,-2.505803 -0.59937,-3.415511 -1.29501,-4.241601 -0.30842,-0.366263 -0.65956,-0.716124 -1.03404,-1.065052 0.2611,-1.359966 0.74526,-3.315639 0.79581,-5.247743 0.0579,-2.211908 -0.47189,-4.341804 -1.28416,-5.860108 -0.81227,-1.518301 -1.90766,-2.425036 -3.0334,-3.152261 -0.95775,-0.618702 -1.9862,-1.124985 -3.73776,-1.889289 -0.0689,-0.587278 -0.20144,-1.158894 -0.35347,-1.811777 -0.29039,-1.247148 -0.65015,-2.791756 -1.66036,-3.931544 -1.01021,-1.139786 -2.67112,-1.874118 -4.42195,-2.278412 -1.2557,-0.289962 -2.55291,-0.409588 -3.58686,-0.494027 0.0188,-1.349338 -0.17979,-2.897492 -0.84078,-4.832263 -0.70561,-2.065369 -1.9276,-4.561245 -4.03593,-6.514849 -2.10833,-1.953604 -5.1029,-3.364777 -8.34729,-4.242636 -3.2444,-0.877855 -6.73822,-1.222279 -11.80703,-1.205092 z M 56.99652,52.185961 c -0.163918,0.104116 -0.332018,0.213868 -0.560173,0.38654 -1.239367,0.937977 -3.485179,2.86539 -4.745964,4.853451 -1.260782,1.988058 -1.536298,4.036009 -1.682583,6.458519 -0.0339,0.561443 -0.02056,1.187571 -0.03617,1.78232 0.290277,0.998995 0.564385,1.825263 0.824757,2.511475 0.510079,1.344335 0.96907,2.160397 2.436026,3.563091 1.466956,1.402694 3.941641,3.391562 6.314861,4.619874 2.37322,1.228307 4.644861,1.696503 5.832202,1.94355 1.187339,0.247046 1.290394,0.273312 0.643888,-0.276469 -0.646507,-0.549783 -2.042576,-1.676072 -3.444235,-3.277838 -1.401657,-1.601764 -2.808819,-3.679124 -3.688665,-5.798095 -0.87984,-2.118971 -1.232559,-4.27944 -1.31568,-6.14381 -0.08312,-1.864371 0.10359,-3.432651 0.164849,-4.292246 0.06126,-0.859591 -0.0028,-1.01034 -0.173633,-1.521354 -0.17086,-0.511013 -0.448543,-1.382384 -0.541055,-3.688146 -0.01378,-0.343474 -0.02209,-0.724643 -0.02842,-1.120862 z m 57.38254,8.330242 c -0.49642,0.0013 -0.92488,0.0056 -1.26762,0.0093 -1.37095,0.01474 -1.37121,0.01487 -1.87172,0.06615 -0.50051,0.05127 -1.50171,0.15376 -2.22984,0.299723 -0.72813,0.145965 -1.18312,0.33529 -1.42523,0.494027 -0.24211,0.15874 -0.27114,0.286695 0.17156,0.571543 0.44271,0.284845 1.35712,0.726818 2.70785,1.137914 1.35073,0.411097 3.13769,0.791274 5.28908,1.349788 2.15139,0.558517 4.66692,1.295093 6.88692,1.931665 2.22,0.636574 4.1442,1.173136 7.49773,2.162659 3.35353,0.989523 8.1361,2.432153 11.09597,3.359486 2.95986,0.927333 4.09717,1.339519 4.68446,1.480529 0.5873,0.141009 0.62478,0.01074 0.49196,-0.211357 -0.13282,-0.22211 -0.45029,-0.55067 -0.84852,-1.114661 -0.39824,-0.563988 -0.90437,-1.391967 -2.11667,-2.464448 -1.2123,-1.072481 -3.13054,-2.389169 -5.54953,-3.708818 -2.419,-1.319649 -5.33858,-2.641944 -8.41034,-3.54707 -3.07177,-0.905127 -6.29572,-1.392971 -9.2785,-1.622124 -2.2371,-0.171862 -4.33828,-0.198064 -5.82756,-0.194302 z m -32.269862,1.096055 c -1.518388,0.01304 -3.122626,0.111969 -4.384744,0.24288 -1.442421,0.149613 -2.43845,0.340926 -2.891814,0.465605 -0.453363,0.124677 -0.364267,0.182142 -0.319876,0.210839 0.04439,0.0287 0.0444,0.02871 0.949296,0.522967 0.904896,0.494258 2.714615,1.482879 4.526338,2.364714 1.811724,0.881832 3.62571,1.656837 5.257044,2.387968 1.631333,0.731128 3.079922,1.418119 4.271057,1.941999 1.191136,0.523883 2.157341,0.897826 2.603976,1.088824 0.446633,0.190995 0.390499,0.205721 -0.06718,0.185518 -0.457679,-0.02021 -1.316805,-0.07583 -3.143993,-0.142629 -1.827192,-0.0668 -4.622311,-0.145045 -7.026963,-0.244428 -2.40465,-0.09938 -4.418391,-0.219543 -6.503996,-0.520898 -2.085604,-0.301358 -4.242972,-0.783566 -5.620329,-1.210781 -1.377355,-0.427212 -1.975083,-0.799867 -2.517158,-1.238165 -0.542073,-0.438298 -1.028513,-0.942391 -1.286743,-1.227834 -0.258231,-0.285443 -0.288086,-0.352284 -0.313677,-0.219106 -0.02558,0.133178 -0.04688,0.46624 0.522967,1.850532 0.569849,1.38429 1.730984,3.819745 3.45457,5.819283 1.723586,1.999539 4.009392,3.563263 5.93607,4.549077 1.92668,0.985811 3.506229,1.396979 5.938657,1.452107 2.432426,0.05513 5.724086,-0.244184 9.025287,-0.900202 3.301203,-0.656021 6.611845,-1.668434 9.592693,-2.440162 2.98085,-0.771732 5.63126,-1.302801 8.12871,-1.594218 2.49744,-0.29142 4.84208,-0.343554 6.63732,-0.37207 1.79524,-0.02852 3.04095,-0.03314 3.63285,-0.01138 0.5919,0.02178 0.5301,0.07014 -0.0656,0.208773 -0.59573,0.138628 -1.72517,0.367569 -3.30367,0.784965 -1.57851,0.417394 -3.62932,1.030015 -5.98982,1.841749 -2.36049,0.811731 -5.04218,1.825702 -7.19801,2.667019 -2.155831,0.841319 -3.7859,1.510421 -5.026047,1.981276 -1.24015,0.470853 -2.090584,0.743419 -2.807065,0.923457 -0.716479,0.180038 -1.298771,0.267303 -1.542542,0.336931 -0.243769,0.06963 -0.14917,0.1216 0.613918,0.337963 0.763085,0.216363 2.194306,0.597344 4.679299,0.701765 2.484997,0.104423 6.023797,-0.06764 9.734807,-0.723469 3.71101,-0.655833 7.594,-1.795724 10.70426,-2.795177 3.11025,-0.999456 5.44782,-1.858571 7.8512,-2.572454 2.40337,-0.713883 4.87258,-1.282279 6.60114,-1.64951 1.72856,-0.367232 2.71614,-0.532895 3.17397,-0.667145 0.45783,-0.134249 0.38564,-0.237635 -0.0372,-0.543636 -0.42284,-0.305999 -1.19642,-0.814851 -2.98276,-1.789036 -1.78634,-0.974188 -4.58495,-2.413251 -7.12256,-3.380158 -2.53762,-0.966904 -4.8139,-1.461188 -7.43934,-1.676381 -2.62545,-0.215197 -5.60018,-0.15113 -8.02949,0.04961 -2.4293,0.200737 -4.31291,0.538038 -5.49165,0.717785 -1.17874,0.179748 -1.6523,0.201814 -1.95182,0.169498 -0.29952,-0.03231 -0.42547,-0.119145 -1.01647,-0.56379 -0.591,-0.444646 -1.64702,-1.247103 -3.11506,-2.174545 -1.46804,-0.927438 -3.347664,-1.980041 -5.297352,-2.810679 -1.949686,-0.830638 -3.969631,-1.439084 -5.732465,-1.811777 -1.762834,-0.372692 -3.268687,-0.509111 -4.966105,-0.523483 -0.212177,-0.0019 -0.426977,-0.0019 -0.64389,0 z" />
    </g>
  </g>
</svg>
